<svg width="32" height="32" fill="none" xmlns="http://www.w3.org/2000/svg"><path d="M9.06 27c0-.333.09-1 .447-1 .359 0 9.105-2.667 13.433-4 .173-.064.356-.189.27-.333M9.06 27c1.044-.111 3.224-.267 3.582 0 .15.112.2.228.197.333M9.06 27v-3.812m9.851-2.564c-.39.372.087.62.448.71h3.134c.452.111.656.227.718.333m-4.3-1.043c.095-.09.24-.187.448-.29l3.852-1.104m-4.3 1.394l.138-2.957m-.138 3l.256-5.54m0 0L31 11.732m-11.834 3.393l.13-2.793m-.13 2.793l-.118 2.54M31 11.734V17l-7.79 2.23M31 11.733V6.667m-11.704 5.666l.016-.333.046-1c-.358-.8.15-1.222.448-1.333L31 6.465v.202m-11.704 5.666l-.248.076M9.06 16.667c0-1.067.298-1.334.447-1.334l9.541-2.924M9.06 16.667V18m0-1.333v-4m0 8.102l9.988-3.102M9.06 20.769V18m0 2.77v2.418m0-5.188L1 20.333m0 0v5.334m0-5.334V15l8.06-2.333m-8.06 13V31l11.642-3.333c.086-.065.193-.189.197-.334M1 25.667l8.06-2.479m0-10.521V10l9.988-2.667m0 0v5.077m0-5.077l.118-3L31 1v5.667M12.84 27.333v-2.121l10.37-3.545m0 0V19.23" stroke="#fff"/></svg>